<?xml version="1.0" encoding="UTF-8"?>
<svg width="39px" height="39px" viewBox="0 0 39 39" version="1.1" xmlns="http://www.w3.org/2000/svg" xmlns:xlink="http://www.w3.org/1999/xlink">
    <!-- Generator: Sketch 52.5 (67469) - http://www.bohemiancoding.com/sketch -->
    <title>github-logo</title>
    <desc>Created with Sketch.</desc>
    <defs>
        <linearGradient x1="50%" y1="0%" x2="50%" y2="100%" id="linearGradient-1">
            <stop stop-color="#F9836D" offset="0%"></stop>
            <stop stop-color="#F46F85" offset="100%"></stop>
        </linearGradient>
    </defs>
    <g id="Page-1" stroke="none" stroke-width="1" fill="none" fill-rule="evenodd">
        <g id="github-logo" fill="url(#linearGradient-1)">
            <path d="M36.384206,9.95541837 C34.6404619,6.89280175 32.2751844,4.46812391 29.2877509,2.68083788 C26.2998728,0.893460694 23.0380006,0 19.4998221,0 C15.9620884,0 12.699149,0.893734174 9.71189339,2.68083788 C6.72419313,4.46803275 4.35900453,6.89280175 2.61526043,9.95541837 C0.87178312,13.0179438 0,16.3622453 0,19.9882317 C0,24.343864 1.23968751,28.2605601 3.71968505,31.7393228 C6.1994158,35.2183591 9.40286082,37.6257165 13.3297533,38.9616686 C13.7868547,39.0486354 14.1252343,38.9874669 14.3452477,38.7797129 C14.56535,38.5716854 14.6752678,38.3111497 14.6752678,37.9991996 C14.6752678,37.9471472 14.6709102,37.4788575 14.6624619,36.5937835 C14.6537467,35.7087095 14.6496559,34.936583 14.6496559,34.2777686 L14.065651,34.3813265 C13.6933001,34.4512463 13.2235706,34.4808734 12.6564625,34.4724867 C12.0896212,34.4643734 11.5011698,34.4034784 10.8919087,34.2902575 C10.2823809,34.1780394 9.7154506,33.9177771 9.19067327,33.5100177 C8.66616273,33.1022583 8.29381182,32.5685156 8.07370949,31.90961 L7.81981366,31.3106878 C7.65057941,30.9119533 7.38414442,30.4690061 7.02015296,29.9834871 C6.6561615,29.4975123 6.28807924,29.1680595 5.91572834,28.9945817 L5.73795679,28.8641315 C5.61950172,28.7774382 5.50958394,28.6728775 5.40793668,28.5515433 C5.30637835,28.4302092 5.230343,28.3087838 5.17956383,28.1871762 C5.12869574,28.0654774 5.17084867,27.965657 5.30646728,27.8873504 C5.44208589,27.8090439 5.68717763,27.7710301 6.04280965,27.7710301 L6.55042344,27.8487897 C6.88898086,27.9183449 7.30775335,28.1260989 7.80727449,28.4733279 C8.30652885,28.8202835 8.71694189,29.2713439 9.03860256,29.826327 C9.428117,30.5379231 9.89740187,31.0801438 10.4477911,31.4532623 C10.9977357,31.8263808 11.5522157,32.012621 12.1106976,32.012621 C12.6691795,32.012621 13.1515371,31.9692288 13.5579483,31.8829001 C13.9639148,31.7961156 14.3448031,31.6656654 14.7004351,31.4922788 C14.8527726,30.3292575 15.2675432,29.4357969 15.9443912,28.8112586 C14.979676,28.707336 14.1123394,28.5508141 13.3419368,28.3426954 C12.5719788,28.1343033 11.7763199,27.7960991 10.9554938,27.3271713 C10.1342231,26.8588815 9.45292854,26.2773709 8.91143232,25.5836421 C8.36984718,24.8895487 7.92537385,23.9783118 7.57863485,22.8507518 C7.231718,21.722736 7.0582151,20.4215159 7.0582151,18.9467269 C7.0582151,16.8468527 7.72697049,15.0599313 9.06421447,13.58496 C8.43778988,12.0062484 8.49692849,10.2364651 9.24180816,8.27579249 C9.73270307,8.11945282 10.460686,8.23677594 11.4254012,8.62703257 C12.3902943,9.01747152 13.0967561,9.35193813 13.5454981,9.62924733 C13.9942401,9.90646537 14.353785,10.1413851 14.6246665,10.3319098 C16.1991764,9.88094052 17.8240207,9.6554103 19.4996443,9.6554103 C21.1752678,9.6554103 22.8004679,9.88094052 24.3750667,10.3319098 L25.3398708,9.70755391 C25.9996443,9.29095199 26.7787621,8.90917325 27.6753567,8.56212654 C28.572485,8.21526214 29.2584928,8.1197263 29.7326689,8.27606597 C30.4940896,10.2368298 30.5619433,12.0065219 29.9353409,13.5852335 C31.2724959,15.0602048 31.9415181,16.847582 31.9415181,18.9470004 C31.9415181,20.4217894 31.7673927,21.7271117 31.4210094,22.8637877 C31.0741815,24.000646 30.6258842,24.9109713 30.0759396,25.596678 C29.5253725,26.2822936 28.8397203,26.8592462 28.0188943,27.3274448 C27.1978903,27.796008 26.4019647,28.1342121 25.6320067,28.3426043 C24.861693,28.5509964 23.9943564,28.7076095 23.0296411,28.8117144 C23.9095169,29.5922277 24.3495437,30.8242572 24.3495437,32.507256 L24.3495437,37.9984704 C24.3495437,38.3104204 24.4553707,38.570865 24.6672025,38.7789836 C24.8787676,38.9867376 25.2128785,39.0479061 25.6699799,38.9608481 C29.597406,37.6250784 32.800851,35.2176298 35.2804928,31.7385936 C37.7598678,28.2598308 39,24.3431347 39,19.9875024 C38.9991107,16.3619718 38.1268829,13.0179438 36.384206,9.95541837 Z" id="Path"></path>
        </g>
    </g>
</svg>