<?xml version="1.0" encoding="UTF-8"?>
<svg width="39px" height="40px" viewBox="0 0 39 40" version="1.1" xmlns="http://www.w3.org/2000/svg" xmlns:xlink="http://www.w3.org/1999/xlink">
    <!-- Generator: Sketch 52.5 (67469) - http://www.bohemiancoding.com/sketch -->
    <title>linkedin 2</title>
    <desc>Created with Sketch.</desc>
    <defs>
        <linearGradient x1="50%" y1="0%" x2="50%" y2="100%" id="linearGradient-1">
            <stop stop-color="#F9836D" offset="0%"></stop>
            <stop stop-color="#F46F85" offset="100%"></stop>
        </linearGradient>
    </defs>
    <g id="Page-1" stroke="none" stroke-width="1" fill="none" fill-rule="evenodd">
        <g id="linkedin-2" fill="url(#linearGradient-1)">
            <g id="linkedin">
                <path d="M19.3612566,39.7175439 C8.66832986,39.7175439 3.55271368e-15,30.9049368 3.55271368e-15,20.0340351 C3.55271368e-15,9.16313337 8.66832986,0.350526316 19.3612566,0.350526316 C30.0541834,0.350526316 38.7225133,9.16313337 38.7225133,20.0340351 C38.7225133,30.9049368 30.0541834,39.7175439 19.3612566,39.7175439 Z M30.9294159,21.6178947 C30.9294159,17.2722807 28.646708,15.2498246 25.6019469,15.2498246 C23.1428761,15.2498246 22.0460442,16.6252632 21.4310177,17.5873684 L21.4310177,17.6336842 L21.4003009,17.6336842 C21.4085841,17.6185965 21.4216991,17.6031579 21.4310177,17.5873684 L21.4310177,15.5821053 L16.8024425,15.5821053 C16.8645664,16.9094737 16.8024425,29.7326316 16.8024425,29.7326316 L21.4306726,29.7326316 L21.4306726,21.8294737 C21.4306726,21.4052632 21.4620796,20.9852632 21.5839115,20.682807 C21.9193805,19.8364912 22.6790177,18.9624561 23.9577345,18.9624561 C25.633354,18.9624561 26.301531,20.2607018 26.301531,22.1617544 L26.301531,29.7329825 L30.9294159,29.7329825 L30.9294159,21.6178947 Z M11.9609204,8.76105263 C10.3777965,8.76105263 9.3420531,9.81754386 9.3420531,11.205614 C9.3420531,12.5642105 10.3477699,13.6512281 11.900177,13.6512281 L11.9302035,13.6512281 C13.5443894,13.6512281 14.5480354,12.5642105 14.5480354,11.205614 C14.5173186,9.81754386 13.5443894,8.76105263 11.9609204,8.76105263 Z M9.61712389,29.7329825 L14.2436283,29.7329825 L14.2436283,15.5821053 L9.61712389,15.5821053 L9.61712389,29.7329825 Z" id="Combined-Shape"></path>
            </g>
        </g>
    </g>
</svg>