<?xml version="1.0" encoding="UTF-8"?>
<svg width="40px" height="35px" viewBox="0 0 40 35" version="1.1" xmlns="http://www.w3.org/2000/svg" xmlns:xlink="http://www.w3.org/1999/xlink">
    <!-- Generator: Sketch 52.5 (67469) - http://www.bohemiancoding.com/sketch -->
    <title>reddit</title>
    <desc>Created with Sketch.</desc>
    <defs>
        <linearGradient x1="50%" y1="0%" x2="50%" y2="100%" id="linearGradient-1">
            <stop stop-color="#F9836D" offset="0%"></stop>
            <stop stop-color="#F46F85" offset="100%"></stop>
        </linearGradient>
    </defs>
    <g id="Page-1" stroke="none" stroke-width="1" fill="none" fill-rule="evenodd">
        <g id="reddit">
            <path d="M40,17.8065234 C40,19.5629655 38.9254761,21.065919 37.4066162,21.7379933 C37.4725342,22.1622721 37.5085449,22.5925435 37.5085449,23.0288075 C37.5085449,29.6419827 29.6682739,35 19.9969483,35 C10.3256226,35 2.48535156,29.6419827 2.48535156,23.0288075 C2.48535156,22.5865508 2.52136234,22.1505865 2.58728031,21.7260081 C1.06262203,21.0542334 0,19.5509802 0,17.8065234 C0,15.4367349 1.95709227,13.5095026 4.37652586,13.5095026 C5.55297852,13.5095026 6.61560062,13.9634449 7.40203859,14.7062323 C10.4397583,12.5548754 14.6420288,11.1813629 19.3185425,11.0636076 C19.3185425,11.0045801 21.5039062,0.783837001 21.5039062,0.783837001 C21.5457153,0.583383292 21.6659546,0.412593081 21.8399048,0.300530796 C22.0141602,0.188768123 22.2241211,0.15311191 22.4282837,0.194461072 L29.7042847,1.71509289 C30.2145386,0.701438215 31.2652587,0 32.4960327,0 C34.2248535,0 35.6237793,1.37351254 35.6237793,3.07092713 C35.6237793,4.76834172 34.2248535,6.14185426 32.4960327,6.14185426 C30.8209228,6.14185426 29.4644165,4.84504748 29.3862915,3.21834602 L22.8726196,1.85651914 L20.8795166,11.0693006 C25.472107,11.2284051 29.5962524,12.5959251 32.5860595,14.717918 C33.3721923,13.9691379 34.440918,13.5095026 35.6234741,13.5095026 C38.0429077,13.5095026 40,15.4310419 40,17.8065234 Z M26.8829037,23.924383 C28.5992218,23.924383 29.9984801,22.5962801 29.9984801,20.9672408 C29.9984801,19.3382014 28.5992218,18.0100986 26.8829037,18.0100986 C25.1665856,18.0100986 23.7673273,19.3382014 23.7673273,20.9672408 C23.7673273,22.5962801 25.1665856,23.924383 26.8829037,23.924383 Z M27.4331226,28.7774547 C27.7441026,28.4765181 27.7441026,27.9940963 27.4331226,27.6931596 C27.1160627,27.3925115 26.6077942,27.3925115 26.2910384,27.6931596 C24.9513619,28.9647105 22.0811041,29.4188565 20.0358707,29.4188565 C17.9848614,29.4188565 15.1203794,28.9647105 13.7810068,27.6931596 C13.463947,27.3925115 12.9556785,27.3925115 12.6386187,27.6931596 C12.3218629,27.9940963 12.3218629,28.4765181 12.6386187,28.7774547 C14.7616732,30.7922585 18.8399805,30.9512385 20.0358707,30.9512385 C21.2317607,30.9512385 25.3042923,30.7922585 27.4331226,28.7774547 Z M10.0614056,20.9675293 C10.0614056,22.5962801 11.4606639,23.924383 13.176982,23.9246716 C14.8933001,23.9246716 16.2925584,22.5962801 16.2925584,20.9675293 C16.2925584,19.3384899 14.8933001,18.0103871 13.176982,18.0103871 C11.4606639,18.0103871 10.0614056,19.3384899 10.0614056,20.9675293 Z" id="Combined-Shape" fill="url(#linearGradient-1)"></path>
            <g id="Group" transform="translate(10.000000, 18.000000)"></g>
        </g>
    </g>
</svg>